# 3ds Max Wavefront OBJ Exporter v0.97b - (c)2007 guruware
# File Created: 20.01.2015 20:05:44

#
# object MDLB_ApartmentSign
#

v  75.0000 -50.0000 2.4000
v  75.0000 -50.0000 -2.4000
v  75.0000 50.0000 -2.4000
v  75.0000 50.0000 2.4000
v  -75.0000 -50.0000 2.4000
v  -75.0000 50.0000 2.4000
v  -75.0000 50.0000 -2.4000
v  -75.0000 -50.0000 -2.4000
v  -63.1676 -41.9005 3.7560
v  -69.9398 -41.9005 3.7560
v  -69.9398 -41.9005 1.8818
v  -63.1676 -41.9005 1.8818
v  -63.1676 41.9005 3.7560
v  -63.1676 41.9005 1.8818
v  -69.9398 41.9005 1.8818
v  -69.9398 41.9005 3.7560
v  -63.1676 -41.9005 16.3357
v  -69.9398 -41.9005 16.3357
v  -69.9398 -41.9005 12.2783
v  -63.1676 -41.9005 12.2783
v  -63.1676 41.9005 16.3357
v  -63.1676 41.9005 12.2783
v  -69.9398 41.9005 12.2783
v  -69.9398 41.9005 16.3357
v  -66.7059 32.4394 3.1281
v  -66.7059 32.4394 13.5034
v  -66.7059 36.3546 13.5034
v  -66.7059 36.3546 3.1281
v  -68.6635 34.3970 3.1281
v  -68.6635 34.3970 13.5034
v  -64.7483 34.3970 13.5034
v  -64.7483 34.3970 3.1281
v  -66.7059 -38.3206 3.1281
v  -66.7059 -38.3206 13.5034
v  -66.7059 -34.4054 13.5034
v  -66.7059 -34.4054 3.1281
v  -68.6635 -36.3630 3.1281
v  -68.6635 -36.3630 13.5034
v  -64.7483 -36.3630 13.5034
v  -64.7483 -36.3630 3.1281
v  -66.7059 -1.8419 3.1281
v  -66.7059 -1.8419 13.5034
v  -66.7059 2.0733 13.5034
v  -66.7059 2.0733 3.1281
v  -68.6635 0.1157 3.1281
v  -68.6635 0.1157 13.5034
v  -64.7483 0.1157 13.5034
v  -64.7483 0.1157 3.1281
v  63.1676 -41.9005 3.7560
v  63.1676 -41.9005 1.8818
v  69.9398 -41.9005 1.8818
v  69.9398 -41.9005 3.7560
v  63.1676 41.9005 3.7560
v  69.9398 41.9005 3.7560
v  69.9398 41.9005 1.8818
v  63.1676 41.9005 1.8818
v  63.1676 -41.9005 16.3357
v  63.1676 -41.9005 12.2783
v  69.9398 -41.9005 12.2783
v  69.9398 -41.9005 16.3357
v  63.1676 41.9005 16.3357
v  69.9398 41.9005 16.3357
v  69.9398 41.9005 12.2783
v  63.1676 41.9005 12.2783
v  66.7059 32.4394 3.1281
v  66.7059 36.3546 3.1281
v  66.7059 36.3546 13.5034
v  66.7059 32.4394 13.5034
v  68.6635 34.3970 3.1281
v  64.7483 34.3970 3.1281
v  64.7483 34.3970 13.5034
v  68.6635 34.3970 13.5034
v  66.7059 -38.3206 3.1281
v  66.7059 -34.4054 3.1281
v  66.7059 -34.4054 13.5034
v  66.7059 -38.3206 13.5034
v  68.6635 -36.3630 3.1281
v  64.7483 -36.3630 3.1281
v  64.7483 -36.3630 13.5034
v  68.6635 -36.3630 13.5034
v  66.7059 -1.8419 3.1281
v  66.7059 2.0733 3.1281
v  66.7059 2.0733 13.5034
v  66.7059 -1.8419 13.5034
v  68.6635 0.1157 3.1281
v  64.7483 0.1157 3.1281
v  64.7483 0.1157 13.5034
v  68.6635 0.1157 13.5034
# 88 vertices

vn 1.0000 0.0000 -0.0000
vn -1.0000 0.0000 -0.0000
vn 0.0000 0.0000 -1.0000
vn 0.0000 -1.0000 -0.0000
vn 0.0000 1.0000 -0.0000
vn 0.0000 0.0000 1.0000
vn -1.0000 0.0000 0.0000
vn 1.0000 0.0000 0.0000
# 8 vertex normals

vt 0.0099 0.0359 0.0000
vt 0.0396 0.0359 0.0000
vt 0.0396 0.6537 0.0000
vt 0.0099 0.6537 0.0000
vt 0.9959 0.0359 0.0000
vt 0.9959 0.6537 0.0000
vt 0.9663 0.6537 0.0000
vt 0.9662 0.0359 0.0000
vt 0.0395 0.0063 0.0000
vt 0.9662 0.0063 0.0000
vt 0.9663 0.6834 0.0000
vt 0.0396 0.6834 0.0000
vt 0.9956 0.9086 0.0000
vt 0.6825 0.9086 0.0000
vt 0.6825 0.6999 0.0000
vt 0.9956 0.6999 0.0000
vt 0.0186 0.7075 0.0000
vt 0.0186 0.7594 0.0000
vt 0.0043 0.7594 0.0000
vt 0.0043 0.7075 0.0000
vt 0.6607 0.7075 0.0000
vt 0.6751 0.7075 0.0000
vt 0.6751 0.7594 0.0000
vt 0.6607 0.7594 0.0000
vt 0.6607 0.7738 0.0000
vt 0.0186 0.7738 0.0000
vt 0.0186 0.6932 0.0000
vt 0.6607 0.6932 0.0000
vt 0.0031 0.8801 0.0000
vt 0.0032 0.8305 0.0000
vt 0.0329 0.8306 0.0000
vt 0.0328 0.8801 0.0000
vt 0.6758 0.8812 0.0000
vt 0.6461 0.8812 0.0000
vt 0.6462 0.8316 0.0000
vt 0.6759 0.8317 0.0000
vt 0.0329 0.8009 0.0000
vt 0.6462 0.8019 0.0000
vt 0.6460 0.9109 0.0000
vt 0.0327 0.9098 0.0000
vt 0.8430 0.9249 0.0000
vt 0.9830 0.9249 0.0000
vt 0.9830 0.9777 0.0000
vt 0.8430 0.9777 0.0000
vt 0.8430 0.9254 0.0000
vt 0.9830 0.9254 0.0000
vt 0.9830 0.9782 0.0000
vt 0.8430 0.9782 0.0000
# 48 texture coords

g MDLB_ApartmentSign
s 16
f 1/1/1 2/2/1 3/3/1 4/4/1 
f 5/5/2 6/6/2 7/7/2 8/8/2 
s 32
f 7/7/3 3/3/3 2/2/3 8/8/3 
s 2
f 2/2/4 1/9/4 5/10/4 8/8/4 
s 4
f 3/3/5 7/7/5 6/11/5 4/12/5 
s 8
f 4/13/6 6/14/6 5/15/6 1/16/6 
s 2
f 9/17/4 10/18/4 11/19/4 12/20/4 
s 4
f 13/21/5 14/22/5 15/23/5 16/24/5 
s 8
f 9/17/6 13/21/6 16/24/6 10/18/6 
s 16
f 10/18/2 16/24/2 15/25/2 11/26/2 
s 64
f 12/27/1 14/28/1 13/21/1 9/17/1 
s 2
f 17/29/4 18/30/4 19/31/4 20/32/4 
s 4
f 21/33/5 22/34/5 23/35/5 24/36/5 
s 16
f 18/37/2 24/38/2 23/35/2 19/31/2 
s 32
f 19/31/3 23/35/3 22/34/3 20/32/3 
s 64
f 20/32/1 22/34/1 21/39/1 17/40/1 
s 1
f 25/41/7 26/42/7 27/43/7 28/44/7 
f 29/45/5 30/46/5 31/47/5 32/48/5 
f 33/41/7 34/42/7 35/43/7 36/44/7 
f 37/45/5 38/46/5 39/47/5 40/48/5 
f 41/41/7 42/42/7 43/43/7 44/44/7 
f 45/45/5 46/46/5 47/47/5 48/48/5 
s 2
f 49/17/4 50/20/4 51/19/4 52/18/4 
s 4
f 53/21/5 54/24/5 55/23/5 56/22/5 
s 8
f 49/17/6 52/18/6 54/24/6 53/21/6 
s 16
f 52/18/1 51/26/1 55/25/1 54/24/1 
s 64
f 50/27/2 49/17/2 53/21/2 56/28/2 
s 2
f 57/29/4 58/32/4 59/31/4 60/30/4 
s 4
f 61/33/5 62/36/5 63/35/5 64/34/5 
s 16
f 60/37/1 59/31/1 63/35/1 62/38/1 
s 32
f 59/31/3 58/32/3 64/34/3 63/35/3 
s 64
f 58/32/2 57/40/2 61/39/2 64/34/2 
s 1
f 65/41/8 66/44/8 67/43/8 68/42/8 
f 69/45/5 70/48/5 71/47/5 72/46/5 
f 73/41/8 74/44/8 75/43/8 76/42/8 
f 77/45/5 78/48/5 79/47/5 80/46/5 
f 81/41/8 82/44/8 83/43/8 84/42/8 
f 85/45/5 86/48/5 87/47/5 88/46/5 
# 38 polygons

